%TF.GenerationSoftware,KiCad,Pcbnew,7.0.10*%
%TF.CreationDate,2024-02-09T18:14:34-05:00*%
%TF.ProjectId,ti84_usbc,74693834-5f75-4736-9263-2e6b69636164,rev?*%
%TF.SameCoordinates,Original*%
%TF.FileFunction,Legend,Top*%
%TF.FilePolarity,Positive*%
%FSLAX46Y46*%
G04 Gerber Fmt 4.6, Leading zero omitted, Abs format (unit mm)*
G04 Created by KiCad (PCBNEW 7.0.10) date 2024-02-09 18:14:34*
%MOMM*%
%LPD*%
G01*
G04 APERTURE LIST*
%ADD10C,0.150000*%
%ADD11C,0.120000*%
G04 APERTURE END LIST*
D10*
X185893922Y-26969819D02*
X186465350Y-26969819D01*
X186179636Y-27969819D02*
X186179636Y-26969819D01*
X186798684Y-27969819D02*
X186798684Y-26969819D01*
X187274874Y-27588866D02*
X188036779Y-27588866D01*
X188655826Y-27398390D02*
X188560588Y-27350771D01*
X188560588Y-27350771D02*
X188512969Y-27303152D01*
X188512969Y-27303152D02*
X188465350Y-27207914D01*
X188465350Y-27207914D02*
X188465350Y-27160295D01*
X188465350Y-27160295D02*
X188512969Y-27065057D01*
X188512969Y-27065057D02*
X188560588Y-27017438D01*
X188560588Y-27017438D02*
X188655826Y-26969819D01*
X188655826Y-26969819D02*
X188846302Y-26969819D01*
X188846302Y-26969819D02*
X188941540Y-27017438D01*
X188941540Y-27017438D02*
X188989159Y-27065057D01*
X188989159Y-27065057D02*
X189036778Y-27160295D01*
X189036778Y-27160295D02*
X189036778Y-27207914D01*
X189036778Y-27207914D02*
X188989159Y-27303152D01*
X188989159Y-27303152D02*
X188941540Y-27350771D01*
X188941540Y-27350771D02*
X188846302Y-27398390D01*
X188846302Y-27398390D02*
X188655826Y-27398390D01*
X188655826Y-27398390D02*
X188560588Y-27446009D01*
X188560588Y-27446009D02*
X188512969Y-27493628D01*
X188512969Y-27493628D02*
X188465350Y-27588866D01*
X188465350Y-27588866D02*
X188465350Y-27779342D01*
X188465350Y-27779342D02*
X188512969Y-27874580D01*
X188512969Y-27874580D02*
X188560588Y-27922200D01*
X188560588Y-27922200D02*
X188655826Y-27969819D01*
X188655826Y-27969819D02*
X188846302Y-27969819D01*
X188846302Y-27969819D02*
X188941540Y-27922200D01*
X188941540Y-27922200D02*
X188989159Y-27874580D01*
X188989159Y-27874580D02*
X189036778Y-27779342D01*
X189036778Y-27779342D02*
X189036778Y-27588866D01*
X189036778Y-27588866D02*
X188989159Y-27493628D01*
X188989159Y-27493628D02*
X188941540Y-27446009D01*
X188941540Y-27446009D02*
X188846302Y-27398390D01*
X189893921Y-27303152D02*
X189893921Y-27969819D01*
X189655826Y-26922200D02*
X189417731Y-27636485D01*
X189417731Y-27636485D02*
X190036778Y-27636485D01*
D11*
%TO.C,R2*%
X189636359Y-28352500D02*
X189943641Y-28352500D01*
X189636359Y-29112500D02*
X189943641Y-29112500D01*
%TO.C,R1*%
X186343641Y-29112500D02*
X186036359Y-29112500D01*
X186343641Y-28352500D02*
X186036359Y-28352500D01*
%TD*%
M02*
