%TF.GenerationSoftware,KiCad,Pcbnew,7.0.10*%
%TF.CreationDate,2024-02-09T18:14:34-05:00*%
%TF.ProjectId,ti84_usbc,74693834-5f75-4736-9263-2e6b69636164,rev?*%
%TF.SameCoordinates,Original*%
%TF.FileFunction,Copper,L2,Bot*%
%TF.FilePolarity,Positive*%
%FSLAX46Y46*%
G04 Gerber Fmt 4.6, Leading zero omitted, Abs format (unit mm)*
G04 Created by KiCad (PCBNEW 7.0.10) date 2024-02-09 18:14:34*
%MOMM*%
%LPD*%
G01*
G04 APERTURE LIST*
G04 Aperture macros list*
%AMRoundRect*
0 Rectangle with rounded corners*
0 $1 Rounding radius*
0 $2 $3 $4 $5 $6 $7 $8 $9 X,Y pos of 4 corners*
0 Add a 4 corners polygon primitive as box body*
4,1,4,$2,$3,$4,$5,$6,$7,$8,$9,$2,$3,0*
0 Add four circle primitives for the rounded corners*
1,1,$1+$1,$2,$3*
1,1,$1+$1,$4,$5*
1,1,$1+$1,$6,$7*
1,1,$1+$1,$8,$9*
0 Add four rect primitives between the rounded corners*
20,1,$1+$1,$2,$3,$4,$5,0*
20,1,$1+$1,$4,$5,$6,$7,0*
20,1,$1+$1,$6,$7,$8,$9,0*
20,1,$1+$1,$8,$9,$2,$3,0*%
%AMHorizOval*
0 Thick line with rounded ends*
0 $1 width*
0 $2 $3 position (X,Y) of the first rounded end (center of the circle)*
0 $4 $5 position (X,Y) of the second rounded end (center of the circle)*
0 Add line between two ends*
20,1,$1,$2,$3,$4,$5,0*
0 Add two circle primitives to create the rounded ends*
1,1,$1,$2,$3*
1,1,$1,$4,$5*%
G04 Aperture macros list end*
%TA.AperFunction,ComponentPad*%
%ADD10O,1.000000X2.100000*%
%TD*%
%TA.AperFunction,SMDPad,CuDef*%
%ADD11RoundRect,0.125000X0.125000X0.925000X-0.125000X0.925000X-0.125000X-0.925000X0.125000X-0.925000X0*%
%TD*%
%TA.AperFunction,ComponentPad*%
%ADD12HorizOval,1.500000X-0.307818X0.845723X0.307818X-0.845723X0*%
%TD*%
%TA.AperFunction,ComponentPad*%
%ADD13O,1.100000X2.300000*%
%TD*%
%TA.AperFunction,ComponentPad*%
%ADD14HorizOval,1.500000X0.307818X0.845723X-0.307818X-0.845723X0*%
%TD*%
%TA.AperFunction,ViaPad*%
%ADD15C,0.800000*%
%TD*%
%TA.AperFunction,ViaPad*%
%ADD16C,0.600000*%
%TD*%
%TA.AperFunction,Conductor*%
%ADD17C,0.500000*%
%TD*%
%TA.AperFunction,Conductor*%
%ADD18C,0.300000*%
%TD*%
G04 APERTURE END LIST*
D10*
%TO.P,J2,S1,SHIELD*%
%TO.N,/SHIELD*%
X183680000Y-30975000D03*
X192320000Y-30975000D03*
%TD*%
D11*
%TO.P,J1,1,VBUS*%
%TO.N,/VBUS*%
X186400000Y-28597500D03*
%TO.P,J1,2,D-*%
%TO.N,/D-*%
X187200000Y-28597500D03*
%TO.P,J1,3,D+*%
%TO.N,/D+*%
X188000000Y-28597500D03*
%TO.P,J1,4,ID*%
%TO.N,unconnected-(J1-ID-Pad4)*%
X188800000Y-28597500D03*
%TO.P,J1,5,GND*%
%TO.N,GND*%
X189600000Y-28597500D03*
D12*
%TO.P,J1,6,Shield*%
%TO.N,/SHIELD*%
X191750000Y-34297500D03*
D13*
X191650000Y-28397500D03*
X184350000Y-28397500D03*
D14*
X184250000Y-34297500D03*
%TD*%
D15*
%TO.N,/D-*%
X187800000Y-31600000D03*
D16*
%TO.N,GND*%
X185524856Y-28037183D03*
D15*
%TO.N,/VBUS*%
X186415083Y-31834002D03*
D16*
%TO.N,GND*%
X190300000Y-28009469D03*
%TO.N,/D+*%
X188000000Y-27560676D03*
%TD*%
D17*
%TO.N,/VBUS*%
X186400000Y-28597500D02*
X186400000Y-31818919D01*
X186400000Y-31818919D02*
X186415083Y-31834002D01*
D18*
%TO.N,/D-*%
X187800000Y-31600000D02*
X187200000Y-31000000D01*
X187200000Y-31000000D02*
X187200000Y-28597500D01*
D17*
%TO.N,GND*%
X189600000Y-28597500D02*
X189600000Y-30369182D01*
X189600000Y-28597500D02*
X189600000Y-27032004D01*
%TD*%
%TA.AperFunction,Conductor*%
%TO.N,GND*%
G36*
X192983039Y-26517685D02*
G01*
X193028794Y-26570489D01*
X193040000Y-26622000D01*
X193040000Y-29713560D01*
X193020315Y-29780599D01*
X192967511Y-29826354D01*
X192898353Y-29836298D01*
X192834797Y-29807273D01*
X192828319Y-29801241D01*
X192822262Y-29795184D01*
X192669523Y-29699211D01*
X192499252Y-29639631D01*
X192468394Y-29636154D01*
X192403981Y-29609087D01*
X192364426Y-29551492D01*
X192362289Y-29481655D01*
X192380246Y-29444720D01*
X192379588Y-29444324D01*
X192383049Y-29438570D01*
X192383054Y-29438564D01*
X192460732Y-29270667D01*
X192500500Y-29089997D01*
X192500500Y-27751387D01*
X192485514Y-27613590D01*
X192426444Y-27438279D01*
X192331070Y-27279764D01*
X192297379Y-27244197D01*
X192203850Y-27145459D01*
X192121165Y-27089398D01*
X192050730Y-27041642D01*
X192050727Y-27041640D01*
X192050723Y-27041638D01*
X191878877Y-26973169D01*
X191805851Y-26961197D01*
X191696317Y-26943240D01*
X191696314Y-26943240D01*
X191511593Y-26953255D01*
X191511588Y-26953255D01*
X191333343Y-27002744D01*
X191333337Y-27002747D01*
X191169897Y-27089398D01*
X191028900Y-27209162D01*
X190916946Y-27356436D01*
X190839268Y-27524332D01*
X190839266Y-27524336D01*
X190799500Y-27705002D01*
X190799500Y-29043616D01*
X190814486Y-29181411D01*
X190873557Y-29356723D01*
X190873558Y-29356725D01*
X190968931Y-29515237D01*
X190968932Y-29515238D01*
X191096149Y-29649540D01*
X191134430Y-29675495D01*
X191249270Y-29753358D01*
X191249273Y-29753359D01*
X191249276Y-29753361D01*
X191421122Y-29821830D01*
X191421125Y-29821831D01*
X191538249Y-29841032D01*
X191601220Y-29871303D01*
X191637829Y-29930814D01*
X191636453Y-30000670D01*
X191623181Y-30029370D01*
X191594212Y-30075474D01*
X191534631Y-30245745D01*
X191534630Y-30245750D01*
X191519500Y-30380039D01*
X191519500Y-30984727D01*
X191499815Y-31051766D01*
X191447011Y-31097521D01*
X191377853Y-31107465D01*
X191314297Y-31078440D01*
X191306416Y-31070077D01*
X191306198Y-31070296D01*
X191300455Y-31064553D01*
X191300452Y-31064551D01*
X191300451Y-31064549D01*
X191180233Y-30972302D01*
X191180229Y-30972300D01*
X191116801Y-30946027D01*
X191040236Y-30914313D01*
X191026171Y-30912461D01*
X190927727Y-30899500D01*
X190927720Y-30899500D01*
X190852280Y-30899500D01*
X190852272Y-30899500D01*
X190739764Y-30914313D01*
X190739763Y-30914313D01*
X190599770Y-30972300D01*
X190599767Y-30972301D01*
X190599767Y-30972302D01*
X190538567Y-31019263D01*
X190479549Y-31064549D01*
X190387300Y-31184770D01*
X190329313Y-31324763D01*
X190329312Y-31324765D01*
X190309534Y-31474999D01*
X190309534Y-31475000D01*
X190329312Y-31625234D01*
X190329313Y-31625236D01*
X190387302Y-31765233D01*
X190479549Y-31885451D01*
X190599767Y-31977698D01*
X190739764Y-32035687D01*
X190852280Y-32050500D01*
X190852287Y-32050500D01*
X190927713Y-32050500D01*
X190927720Y-32050500D01*
X191040236Y-32035687D01*
X191180233Y-31977698D01*
X191300451Y-31885451D01*
X191365183Y-31801089D01*
X191421609Y-31759889D01*
X191491355Y-31755734D01*
X191552275Y-31789946D01*
X191580598Y-31835622D01*
X191594209Y-31874520D01*
X191659040Y-31977697D01*
X191690184Y-32027262D01*
X191817738Y-32154816D01*
X191908080Y-32211582D01*
X191947641Y-32236440D01*
X191970478Y-32250789D01*
X192140745Y-32310368D01*
X192140750Y-32310369D01*
X192319996Y-32330565D01*
X192320000Y-32330565D01*
X192320004Y-32330565D01*
X192499249Y-32310369D01*
X192499252Y-32310368D01*
X192499255Y-32310368D01*
X192669522Y-32250789D01*
X192822262Y-32154816D01*
X192828319Y-32148759D01*
X192889642Y-32115274D01*
X192959334Y-32120258D01*
X193015267Y-32162130D01*
X193039684Y-32227594D01*
X193040000Y-32236440D01*
X193040000Y-34067049D01*
X193020315Y-34134088D01*
X192967511Y-34179843D01*
X192898353Y-34189787D01*
X192834797Y-34160762D01*
X192799478Y-34109460D01*
X192673222Y-33762576D01*
X192411678Y-33043989D01*
X192344612Y-32904169D01*
X192220440Y-32738635D01*
X192220437Y-32738631D01*
X192066359Y-32600508D01*
X191888292Y-32495094D01*
X191823220Y-32472211D01*
X191693079Y-32426445D01*
X191693076Y-32426444D01*
X191693075Y-32426444D01*
X191488226Y-32397198D01*
X191281603Y-32408480D01*
X191081151Y-32459853D01*
X190894572Y-32549348D01*
X190729036Y-32673521D01*
X190590913Y-32827599D01*
X190590913Y-32827600D01*
X190485499Y-33005665D01*
X190485499Y-33005666D01*
X190416850Y-33200881D01*
X190416849Y-33200883D01*
X190387603Y-33405731D01*
X190387603Y-33405733D01*
X190398885Y-33612356D01*
X190398886Y-33612358D01*
X190437384Y-33762576D01*
X191088318Y-35551002D01*
X191088321Y-35551008D01*
X191088322Y-35551011D01*
X191155388Y-35690831D01*
X191234512Y-35796311D01*
X191279564Y-35856369D01*
X191433640Y-35994490D01*
X191475861Y-36019484D01*
X191611709Y-36099906D01*
X191806921Y-36168555D01*
X192011774Y-36197801D01*
X192218397Y-36186520D01*
X192418849Y-36135146D01*
X192605426Y-36045653D01*
X192770960Y-35921481D01*
X192823669Y-35862683D01*
X192883074Y-35825905D01*
X192952934Y-35827082D01*
X193011067Y-35865841D01*
X193039018Y-35929877D01*
X193040000Y-35945454D01*
X193040000Y-36373000D01*
X193020315Y-36440039D01*
X192967511Y-36485794D01*
X192916000Y-36497000D01*
X183024500Y-36497000D01*
X182957461Y-36477315D01*
X182911706Y-36424511D01*
X182900500Y-36373000D01*
X182900500Y-35879081D01*
X182920185Y-35812042D01*
X182972989Y-35766287D01*
X183042147Y-35756343D01*
X183105703Y-35785368D01*
X183116825Y-35796304D01*
X183229040Y-35921481D01*
X183394574Y-36045653D01*
X183581151Y-36135147D01*
X183781603Y-36186520D01*
X183988226Y-36197802D01*
X184193079Y-36168555D01*
X184388291Y-36099906D01*
X184566358Y-35994492D01*
X184638437Y-35929877D01*
X184720437Y-35856368D01*
X184720437Y-35856367D01*
X184720440Y-35856365D01*
X184844612Y-35690831D01*
X184911678Y-35551011D01*
X185562616Y-33762574D01*
X185601115Y-33612356D01*
X185612397Y-33405734D01*
X185583150Y-33200880D01*
X185514501Y-33005669D01*
X185514500Y-33005667D01*
X185514500Y-33005666D01*
X185409086Y-32827599D01*
X185270963Y-32673521D01*
X185173630Y-32600509D01*
X185105426Y-32549347D01*
X184918849Y-32459854D01*
X184718397Y-32408480D01*
X184718396Y-32408479D01*
X184718395Y-32408479D01*
X184511775Y-32397199D01*
X184511770Y-32397199D01*
X184306921Y-32426444D01*
X184111710Y-32495093D01*
X183933641Y-32600509D01*
X183933640Y-32600509D01*
X183779564Y-32738630D01*
X183655389Y-32904167D01*
X183655388Y-32904168D01*
X183655388Y-32904169D01*
X183606705Y-33005665D01*
X183588320Y-33043994D01*
X183141022Y-34272935D01*
X183099596Y-34329198D01*
X183034327Y-34354134D01*
X182965938Y-34339824D01*
X182916143Y-34290812D01*
X182900500Y-34230524D01*
X182900500Y-32176940D01*
X182920185Y-32109901D01*
X182972989Y-32064146D01*
X183042147Y-32054202D01*
X183105703Y-32083227D01*
X183112181Y-32089259D01*
X183177738Y-32154816D01*
X183268080Y-32211582D01*
X183307641Y-32236440D01*
X183330478Y-32250789D01*
X183500745Y-32310368D01*
X183500750Y-32310369D01*
X183679996Y-32330565D01*
X183680000Y-32330565D01*
X183680004Y-32330565D01*
X183859249Y-32310369D01*
X183859252Y-32310368D01*
X183859255Y-32310368D01*
X184029522Y-32250789D01*
X184182262Y-32154816D01*
X184309816Y-32027262D01*
X184405789Y-31874522D01*
X184419401Y-31835622D01*
X184460121Y-31778848D01*
X184525074Y-31753100D01*
X184593636Y-31766556D01*
X184634815Y-31801088D01*
X184699549Y-31885451D01*
X184819767Y-31977698D01*
X184959764Y-32035687D01*
X185072280Y-32050500D01*
X185072287Y-32050500D01*
X185147713Y-32050500D01*
X185147720Y-32050500D01*
X185260236Y-32035687D01*
X185400233Y-31977698D01*
X185520451Y-31885451D01*
X185520453Y-31885449D01*
X185526654Y-31880691D01*
X185591823Y-31855496D01*
X185660268Y-31869534D01*
X185710258Y-31918348D01*
X185725237Y-31964119D01*
X185729942Y-32002870D01*
X185729943Y-32002876D01*
X185790265Y-32161933D01*
X185851598Y-32250788D01*
X185886900Y-32301931D01*
X185992588Y-32395562D01*
X186014233Y-32414738D01*
X186164856Y-32493791D01*
X186164858Y-32493792D01*
X186330027Y-32534502D01*
X186500139Y-32534502D01*
X186665308Y-32493792D01*
X186793628Y-32426444D01*
X186815932Y-32414738D01*
X186815933Y-32414736D01*
X186815935Y-32414736D01*
X186943266Y-32301931D01*
X187039901Y-32161932D01*
X187061647Y-32104590D01*
X187103824Y-32048888D01*
X187169421Y-32024830D01*
X187237612Y-32040056D01*
X187266196Y-32062962D01*
X187266203Y-32062955D01*
X187266348Y-32063084D01*
X187270408Y-32066337D01*
X187271812Y-32067922D01*
X187271817Y-32067929D01*
X187361510Y-32147390D01*
X187399150Y-32180736D01*
X187532623Y-32250788D01*
X187549775Y-32259790D01*
X187714944Y-32300500D01*
X187885056Y-32300500D01*
X188050225Y-32259790D01*
X188129692Y-32218081D01*
X188200849Y-32180736D01*
X188200850Y-32180734D01*
X188200852Y-32180734D01*
X188328183Y-32067929D01*
X188424818Y-31927930D01*
X188485140Y-31768872D01*
X188505645Y-31600000D01*
X188485140Y-31431128D01*
X188481016Y-31420255D01*
X188444802Y-31324764D01*
X188424818Y-31272070D01*
X188413590Y-31255804D01*
X188368766Y-31190865D01*
X188328183Y-31132071D01*
X188200852Y-31019266D01*
X188200849Y-31019263D01*
X188050226Y-30940210D01*
X187885056Y-30899500D01*
X187787965Y-30899500D01*
X187720926Y-30879815D01*
X187700284Y-30863181D01*
X187686819Y-30849716D01*
X187653334Y-30788393D01*
X187650500Y-30762035D01*
X187650500Y-30062932D01*
X187670185Y-29995893D01*
X187722989Y-29950138D01*
X187792147Y-29940194D01*
X187793899Y-29940459D01*
X187841508Y-29948000D01*
X187841512Y-29948000D01*
X188158493Y-29948000D01*
X188258121Y-29932220D01*
X188258121Y-29932219D01*
X188258126Y-29932219D01*
X188343708Y-29888612D01*
X188412374Y-29875717D01*
X188456289Y-29888611D01*
X188541874Y-29932219D01*
X188541876Y-29932219D01*
X188541878Y-29932220D01*
X188641507Y-29948000D01*
X188963360Y-29948000D01*
X188963360Y-29949930D01*
X189023715Y-29962581D01*
X189052798Y-29984181D01*
X189088883Y-30020267D01*
X189088891Y-30020273D01*
X189224811Y-30100655D01*
X189224814Y-30100656D01*
X189376446Y-30144710D01*
X189376452Y-30144711D01*
X189411881Y-30147499D01*
X189411894Y-30147500D01*
X189788106Y-30147500D01*
X189788118Y-30147499D01*
X189823547Y-30144711D01*
X189823553Y-30144710D01*
X189975185Y-30100656D01*
X189975188Y-30100655D01*
X190111108Y-30020273D01*
X190111116Y-30020267D01*
X190222767Y-29908616D01*
X190222773Y-29908608D01*
X190303154Y-29772691D01*
X190303156Y-29772684D01*
X190329828Y-29680882D01*
X190329828Y-29680881D01*
X189386819Y-28737872D01*
X189353334Y-28676549D01*
X189350500Y-28650191D01*
X189350500Y-28597500D01*
X189953553Y-28597500D01*
X190349999Y-28993947D01*
X190350000Y-28993946D01*
X190350000Y-28201053D01*
X190349999Y-28201052D01*
X189953553Y-28597499D01*
X189953553Y-28597500D01*
X189350500Y-28597500D01*
X189350500Y-28544809D01*
X189370185Y-28477770D01*
X189386819Y-28457128D01*
X189600000Y-28243947D01*
X190329828Y-27514117D01*
X190303156Y-27422312D01*
X190303155Y-27422311D01*
X190222773Y-27286391D01*
X190222767Y-27286383D01*
X190111116Y-27174732D01*
X190111108Y-27174726D01*
X189975188Y-27094344D01*
X189975185Y-27094343D01*
X189823553Y-27050289D01*
X189823547Y-27050288D01*
X189788118Y-27047500D01*
X189411881Y-27047500D01*
X189376452Y-27050288D01*
X189376446Y-27050289D01*
X189224814Y-27094343D01*
X189224811Y-27094344D01*
X189088894Y-27174724D01*
X189088884Y-27174732D01*
X189052794Y-27210821D01*
X188991470Y-27244305D01*
X188963359Y-27246215D01*
X188963359Y-27247000D01*
X188641512Y-27247000D01*
X188602661Y-27253153D01*
X188533367Y-27244197D01*
X188484888Y-27206165D01*
X188428283Y-27132395D01*
X188378694Y-27094344D01*
X188302841Y-27036140D01*
X188156762Y-26975632D01*
X188156760Y-26975631D01*
X188000001Y-26954994D01*
X187999999Y-26954994D01*
X187843239Y-26975631D01*
X187843237Y-26975632D01*
X187697160Y-27036139D01*
X187655345Y-27068224D01*
X187571718Y-27132394D01*
X187571717Y-27132395D01*
X187571716Y-27132396D01*
X187515110Y-27206166D01*
X187458682Y-27247368D01*
X187397338Y-27253152D01*
X187358495Y-27247000D01*
X187358488Y-27247000D01*
X187041512Y-27247000D01*
X187041507Y-27247000D01*
X186941876Y-27262779D01*
X186856294Y-27306386D01*
X186787625Y-27319282D01*
X186743706Y-27306386D01*
X186658123Y-27262779D01*
X186558493Y-27247000D01*
X186558488Y-27247000D01*
X186241512Y-27247000D01*
X186241507Y-27247000D01*
X186141878Y-27262779D01*
X186141874Y-27262780D01*
X186141874Y-27262781D01*
X186108549Y-27279761D01*
X186021778Y-27323973D01*
X186021774Y-27323976D01*
X185926476Y-27419274D01*
X185926473Y-27419278D01*
X185865279Y-27539378D01*
X185849500Y-27639006D01*
X185849500Y-31133066D01*
X185829815Y-31200105D01*
X185777011Y-31245860D01*
X185707853Y-31255804D01*
X185644297Y-31226779D01*
X185618398Y-31190865D01*
X185616764Y-31191809D01*
X185612700Y-31184770D01*
X185572263Y-31132072D01*
X185520451Y-31064549D01*
X185400233Y-30972302D01*
X185400229Y-30972300D01*
X185336801Y-30946027D01*
X185260236Y-30914313D01*
X185246171Y-30912461D01*
X185147727Y-30899500D01*
X185147720Y-30899500D01*
X185072280Y-30899500D01*
X185072272Y-30899500D01*
X184959764Y-30914313D01*
X184959763Y-30914313D01*
X184819770Y-30972300D01*
X184819767Y-30972301D01*
X184819767Y-30972302D01*
X184758567Y-31019263D01*
X184699544Y-31064553D01*
X184693802Y-31070296D01*
X184691805Y-31068299D01*
X184646434Y-31101421D01*
X184576687Y-31105568D01*
X184515771Y-31071348D01*
X184483026Y-31009627D01*
X184480500Y-30984727D01*
X184480500Y-30380043D01*
X184480499Y-30380039D01*
X184465369Y-30245750D01*
X184465368Y-30245745D01*
X184405788Y-30075475D01*
X184378572Y-30032162D01*
X184359571Y-29964925D01*
X184379938Y-29898090D01*
X184433206Y-29852875D01*
X184476853Y-29842371D01*
X184488407Y-29841745D01*
X184488411Y-29841744D01*
X184666656Y-29792255D01*
X184666656Y-29792254D01*
X184666659Y-29792254D01*
X184830104Y-29705600D01*
X184971100Y-29585837D01*
X185083054Y-29438564D01*
X185160732Y-29270667D01*
X185200500Y-29089997D01*
X185200500Y-27751387D01*
X185185514Y-27613590D01*
X185126444Y-27438279D01*
X185031070Y-27279764D01*
X184997379Y-27244197D01*
X184903850Y-27145459D01*
X184821165Y-27089398D01*
X184750730Y-27041642D01*
X184750727Y-27041640D01*
X184750723Y-27041638D01*
X184578877Y-26973169D01*
X184505851Y-26961197D01*
X184396317Y-26943240D01*
X184396314Y-26943240D01*
X184211593Y-26953255D01*
X184211588Y-26953255D01*
X184033343Y-27002744D01*
X184033337Y-27002747D01*
X183869897Y-27089398D01*
X183728900Y-27209162D01*
X183616946Y-27356436D01*
X183539268Y-27524332D01*
X183539266Y-27524336D01*
X183499500Y-27705002D01*
X183499500Y-29043616D01*
X183514486Y-29181411D01*
X183573557Y-29356723D01*
X183573560Y-29356730D01*
X183628756Y-29448467D01*
X183646452Y-29516058D01*
X183624795Y-29582487D01*
X183570663Y-29626662D01*
X183536390Y-29635615D01*
X183500749Y-29639630D01*
X183500745Y-29639631D01*
X183330476Y-29699211D01*
X183177737Y-29795184D01*
X183112181Y-29860741D01*
X183050858Y-29894226D01*
X182981166Y-29889242D01*
X182925233Y-29847370D01*
X182900816Y-29781906D01*
X182900500Y-29773060D01*
X182900500Y-26622000D01*
X182920185Y-26554961D01*
X182972989Y-26509206D01*
X183024500Y-26498000D01*
X192916000Y-26498000D01*
X192983039Y-26517685D01*
G37*
%TD.AperFunction*%
%TD*%
M02*
